<svg xmlns="http://www.w3.org/2000/svg" width="48" height="48" fill="none">
  <g opacity=".9">
    <path stroke="#fff" stroke-width="2" d="M21.665 33.404H6.396a3.999 3.999 0 0 1-3.999-4v-18.4c0-2.209 1.785-4 3.995-4h32.807c2.21 0 3.998 1.791 3.998 4v6"/>
    <path fill="#fff" d="M13.823 38.715a1 1 0 1 0 .794 1.835l-.794-1.835Zm7.739-2.007c-1.614 0-3.579.526-5.065 1.011a36.122 36.122 0 0 0-2.658.989l-.011.005a.035.035 0 0 1-.003.001h-.002l.397.919c.397.917.396.918.396.918l.002-.001.008-.003.034-.015.139-.058c.122-.05.3-.123.525-.21.45-.176 1.078-.41 1.793-.643 1.462-.477 3.17-.913 4.445-.913v-2Z"/>
    <path stroke="#fff" stroke-width="2" d="M36.666 40.005h-12.07a3 3 0 0 1-3-3v-21a3 3 0 0 1 3-3h15.6a3 3 0 0 1 3 3v3.333"/>
    <path stroke="#fff" stroke-linecap="round" stroke-width="2" d="M30.747 35.076h2.1"/>
    <path stroke="#fff" stroke-width="2" d="M35.813 22.353a3 3 0 0 1 3-3h4.453a3 3 0 0 1 3 3v14.9a3 3 0 0 1-3 3h-4.453a3 3 0 0 1-3-3v-14.9Z"/>
    <path stroke="#fff" stroke-linecap="round" stroke-width="2" d="M40.29 36.455h1.494"/>
  </g>
</svg>
