<svg xmlns="http://www.w3.org/2000/svg" width="48" height="48" fill="none">
  <g opacity=".9">
    <path fill="#fff" d="m25.187 4.052.07-.997L23.9 2.96l.313 1.322.973-.23Zm17.214 12.95.345.938.938-.345-.343-.937-.94.343ZM25.258 4.348l.973-.23-.973.23Zm.486.906.73-.684-.73.684Zm.366.39-.73.684.73-.684Zm.389 1.9.94.343-.94-.342Zm-.068.187-.94-.342.94.342Zm.989 2.12.342-.94-.342.94Zm1.079 1.732-.994-.107.994.107Zm-.203 1.883.995.107-.995-.107Zm.53 1.582-.73.683.73-.683Zm1.627 1.737.73-.683-.73.683Zm1.851.594-.196-.98.196.98Zm4.21-.841.196.98-.196-.98Zm.69-.017-.15.989.15-.99Zm4.109.617.148-.989-.148.99Zm.987-.1-.345-.94.345.94Zm-29.5 23.23-.556.832.536.358.548-.34-.527-.85Zm1.502-33.841.682-.732-.529-.492-.633.347.48.877Zm1.402 1.304L16.385 7l-.681.732Zm.4.518.88-.474-.88.474Zm.906 1.688-.881.473.03.057.038.052.813-.582Zm1.753 2.448.813-.583-.813.583Zm.491 3.819-.941.337.941-.337Zm.402 1.121.941-.337-.941.337Zm-.828 2.374-.528-.85.528.85Zm-1.652 1.025.527.85-.527-.85Zm-.309.235.682.732-.682-.732Zm-1.984 1.848-.682-.732.682.732Zm-2.31 2.15.681.732-.681-.732Zm-.569 1.982-.966.26.966-.26Zm.603 2.244.965-.26-.965.26Zm.569.945-.682.732.681-.732Zm1.35 1.257.682-.732-.681.732Zm.52.79-.94.337.94-.337Zm.9 2.512.942-.337-.942.337Zm.52 1.448.94-.337-.94.337Zm-.83 2.374.528.85-.527-.85Zm7.697-12.485.673.74-.673-.74Zm1.609-1.463-.673-.74.673.74Zm-1.876 4.125-.807.591.807-.59Zm.963 1.314.806-.592-.806.592Zm.363 1.493.988.155-.988-.155Zm-.443 2.82-.988-.155.988.156Zm.07.715.939-.344-.94.344Zm1.862.84.363.932-.363-.932Zm2.457-.957.363.932-.363-.932Zm.944-.762-.835-.55.835.55Zm1.444-2.188.835.55-.835-.55Zm.214-.27-.728-.687.728.686Zm2.054-2.18.728.687-.728-.686Zm-.328-3.024-.564.827.564-.827Zm-.585-.398.564-.826-.023-.015-.023-.014-.518.855Zm-1.613-.977.519-.856-.518.856Zm-.593-.24-.221.975.221-.975Zm-2.204-.501-.29.957.034.01.035.008.221-.975Zm-.804-.244.29-.957-.29.957ZM25.118 5.05c7.536.521 13.853 5.486 16.344 12.295l1.879-.687C40.585 9.126 33.6 3.632 25.256 3.055l-.138 1.995Zm-.904-.767.07.296 1.947-.46-.07-.297-1.947.46Zm.07.296a3 3 0 0 0 .73 1.36l1.46-1.368a1 1 0 0 1-.243-.453l-1.946.461Zm.73 1.36.366.39 1.46-1.367-.366-.39-1.46 1.366Zm.366.39c.22.235.289.573.179.875l1.88.684a2.853 2.853 0 0 0-.6-2.926L25.38 6.329Zm.179.875-.068.186 1.88.684.067-.186-1.879-.684Zm-.068.186a2.655 2.655 0 0 0 1.587 3.402l.684-1.88a.655.655 0 0 1-.391-.838l-1.88-.684Zm1.587 3.402c.283.103.459.386.427.685l1.988.214a2.655 2.655 0 0 0-1.731-2.778l-.684 1.879Zm.427.685-.203 1.883 1.989.214.202-1.883-1.988-.214Zm-.203 1.883a3 3 0 0 0 .793 2.372l1.46-1.367a1 1 0 0 1-.264-.79l-1.989-.215Zm.793 2.372 1.628 1.738 1.46-1.367-1.628-1.738-1.46 1.367Zm1.628 1.738a3 3 0 0 0 2.777.89l-.392-1.96a1 1 0 0 1-.926-.297l-1.46 1.367Zm2.777.89 4.21-.84-.392-1.962-4.21.842.392 1.96Zm4.21-.84c.114-.023.23-.026.345-.01l.297-1.977a3.001 3.001 0 0 0-1.034.025l.392 1.961Zm.345-.01 4.11.618.297-1.978-4.11-.617-.297 1.978Zm4.11.618a3 3 0 0 0 1.48-.151l-.69-1.877a1.002 1.002 0 0 1-.493.05l-.298 1.978Zm1.48-.151.101-.037-.69-1.877-.1.037.69 1.877ZM13.357 39.439C8.317 36.065 5 30.32 5 23.805h-2c0 7.212 3.672 13.566 9.243 17.296l1.113-1.662ZM5 23.805c0-7.114 3.95-13.306 9.782-16.5l-.961-1.754C7.376 9.08 3.002 15.93 3.002 23.805h2ZM16.385 7l-1.401-1.304L13.62 7.16l1.402 1.304L16.385 7Zm.599.776A3 3 0 0 0 16.385 7l-1.363 1.464a1 1 0 0 1 .2.259l1.762-.947Zm.907 1.689-.907-1.689-1.762.947.907 1.688 1.762-.946Zm1.685 2.338-1.753-2.448-1.626 1.165 1.753 2.448 1.626-1.165Zm.561 1.747a3 3 0 0 0-.56-1.747l-1.627 1.165a1 1 0 0 1 .187.582h2Zm0 1.98v-1.98h-2v1.98h2Zm.059.338a1 1 0 0 1-.059-.338h-2a3 3 0 0 0 .176 1.012l1.883-.674Zm.401 1.121-.401-1.121-1.883.674.402 1.121 1.882-.674Zm-1.242 3.56a3 3 0 0 0 1.242-3.56l-1.883.674a1 1 0 0 1-.414 1.187l1.055 1.7Zm-1.652 1.026 1.652-1.025-1.055-1.7-1.652 1.025 1.055 1.7Zm-.154.117a.995.995 0 0 1 .154-.117l-1.055-1.7a2.99 2.99 0 0 0-.462.354l1.363 1.463Zm-1.985 1.848 1.985-1.848-1.363-1.463-1.985 1.847 1.363 1.464Zm-2.31 2.15 2.31-2.15-1.363-1.464-2.31 2.15 1.363 1.464Zm-.284.991a1 1 0 0 1 .284-.991l-1.362-1.464a3 3 0 0 0-.854 2.974l1.932-.519Zm.602 2.243-.602-2.243-1.932.519.603 2.243 1.931-.519Zm.285.473a1.001 1.001 0 0 1-.285-.473l-1.931.519a3 3 0 0 0 .853 1.418l1.363-1.464Zm1.35 1.257-1.35-1.257-1.363 1.464 1.351 1.257 1.363-1.464Zm.781 1.185a2.999 2.999 0 0 0-.78-1.185l-1.363 1.464c.117.11.206.245.26.395l1.883-.674Zm.9 2.512-.9-2.512-1.883.674.9 2.512 1.883-.674Zm.518 1.448-.518-1.448-1.883.674.519 1.448 1.883-.674Zm-1.242 3.56a3 3 0 0 0 1.242-3.56l-1.882.674a1 1 0 0 1-.415 1.187l1.055 1.7Zm-2.836 1.76 2.836-1.76-1.055-1.699-2.836 1.76 1.055 1.7Zm10.678-14.354 1.608-1.463-1.345-1.48-1.608 1.463 1.345 1.48Zm-.134 1.33a1 1 0 0 1 .134-1.33l-1.345-1.48a3 3 0 0 0-.402 3.994l1.613-1.183Zm.963 1.314-.963-1.313-1.613 1.183.964 1.313 1.613-1.183Zm.545 2.24a3 3 0 0 0-.544-2.24l-1.613 1.183a1 1 0 0 1 .181.747l1.976.31Zm-.443 2.82.443-2.82-1.976-.31-.443 2.82 1.976.31Zm.02.216a.43.43 0 0 1-.02-.215l-1.976-.31a2.43 2.43 0 0 0 .119 1.213l1.878-.688Zm.56.253a.43.43 0 0 1-.56-.253l-1.877.688a2.43 2.43 0 0 0 3.164 1.428l-.726-1.863Zm2.459-.958-2.458.958.726 1.863 2.457-.957-.726-1.864Zm.471-.38a1 1 0 0 1-.472.38l.726 1.864a3 3 0 0 0 1.415-1.143l-1.669-1.102Zm1.444-2.19-1.444 2.19 1.67 1.1 1.444-2.187-1.67-1.102Zm.321-.405a3.002 3.002 0 0 0-.32.406l1.669 1.102a.996.996 0 0 1 .107-.136l-1.456-1.372Zm2.054-2.178-2.054 2.178 1.456 1.372 2.054-2.178-1.456-1.372Zm-.164-1.512a1 1 0 0 1 .164 1.512l1.456 1.372a3 3 0 0 0-.493-4.537l-1.127 1.653Zm-.584-.399.584.399 1.127-1.653-.584-.398-1.127 1.652Zm-1.568-.948 1.613.977 1.037-1.71-1.613-.978-1.037 1.71Zm-.296-.12c.104.024.204.064.296.12l1.037-1.71a3.002 3.002 0 0 0-.89-.36l-.444 1.95Zm-2.204-.501 2.204.5.443-1.95-2.204-.5-.443 1.95Zm-.873-.262.804.244.58-1.914-.804-.244-.58 1.914Zm-.963.217a1 1 0 0 1 .963-.217l.58-1.914a3 3 0 0 0-2.888.651l1.345 1.48Z"/>
    <circle cx="23.801" cy="23.805" r="19.8" stroke="#fff" stroke-width="2"/>
  </g>
</svg>
