<svg aria-hidden="true" style="position: absolute; width: 0; height: 0; overflow: hidden;" version="1.1" xmlns="http://www.w3.org/2000/svg" xmlns:xlink="http://www.w3.org/1999/xlink">
<defs>
<symbol id="telegram" viewBox="0 0 34 32">
<path   opacity="0.8" d="M32.526 16.131c0 8.706-7.058 15.764-15.764 15.764s-15.764-7.058-15.764-15.764c0-8.706 7.058-15.764 15.764-15.764s15.764 7.058 15.764 15.764zM17.326 12.005c-7.838 3.155-10.866 4.486-13.883 5.837l4.69-1.876c-0.747 0.296-1.138 0.587-1.173 0.87-0.061 0.482 0.541 0.67 1.359 0.926 0.111 0.035 0.227 0.070 0.344 0.11 0.806 0.262 1.89 0.568 2.45 0.579 0.51 0.012 1.082-0.198 1.71-0.629 4.294-2.9 6.51-4.364 6.648-4.396 0.099-0.021 0.236-0.050 0.328 0.032 0.091 0.081 0.082 0.236 0.073 0.279-0.061 0.253-2.417 2.446-3.639 3.581-0.381 0.354-0.649 0.603-0.706 0.661-0.122 0.128-0.248 0.25-0.37 0.366-0.748 0.721-1.307 1.262 0.032 2.146 0.645 0.424 1.158 0.774 1.673 1.125 0.561 0.381 1.12 0.762 1.844 1.239 0.184 0.12 0.361 0.244 0.533 0.366 0.652 0.468 1.24 0.885 1.966 0.82 0.419-0.040 0.856-0.434 1.076-1.615 0.523-2.793 1.55-8.841 1.787-11.334 0.015-0.207 0.006-0.416-0.027-0.62-0.020-0.171-0.103-0.32-0.225-0.426l-0.001-0.001c-0.187-0.154-0.478-0.187-0.61-0.184-0.594 0.011-1.502 0.328-5.882 2.149z"></path>
</symbol>
<symbol id="facebook" viewBox="0 0 32 32">
<path  opacity="0.8" d="M18.78 28.96c6.285-1.285 11.013-6.847 11.013-13.512 0-7.617-6.176-13.793-13.793-13.793s-13.793 6.176-13.793 13.793c0 6.599 4.633 12.115 10.823 13.472v-9.967h-3.099v-4.1h3.099v-3.504c0-2.752 1.831-5.28 6.048-5.28 1.707 0 2.971 0.159 2.971 0.159l-0.1 3.829s-1.288-0.012-2.693-0.012c-1.52 0-1.764 0.681-1.764 1.813v2.993h4.579l-0.2 4.101h-4.379v10.208c0.436-0.047 0.867-0.113 1.289-0.2z"></path>
</symbol>
</defs>
</svg>
