<svg aria-hidden="true" style="position: absolute; width: 0; height: 0; overflow: hidden;" version="1.1" xmlns="http://www.w3.org/2000/svg" xmlns:xlink="http://www.w3.org/1999/xlink">
<defs>
<symbol id="telegram" viewBox="0 0 34 32">
<path   opacity="0.8" d="M32.526 16.131c0 8.706-7.058 15.764-15.764 15.764s-15.764-7.058-15.764-15.764c0-8.706 7.058-15.764 15.764-15.764s15.764 7.058 15.764 15.764zM17.326 12.005c-7.838 3.155-10.866 4.486-13.883 5.837l4.69-1.876c-0.747 0.296-1.138 0.587-1.173 0.87-0.061 0.482 0.541 0.67 1.359 0.926 0.111 0.035 0.227 0.070 0.344 0.11 0.806 0.262 1.89 0.568 2.45 0.579 0.51 0.012 1.082-0.198 1.71-0.629 4.294-2.9 6.51-4.364 6.648-4.396 0.099-0.021 0.236-0.050 0.328 0.032 0.091 0.081 0.082 0.236 0.073 0.279-0.061 0.253-2.417 2.446-3.639 3.581-0.381 0.354-0.649 0.603-0.706 0.661-0.122 0.128-0.248 0.25-0.37 0.366-0.748 0.721-1.307 1.262 0.032 2.146 0.645 0.424 1.158 0.774 1.673 1.125 0.561 0.381 1.12 0.762 1.844 1.239 0.184 0.12 0.361 0.244 0.533 0.366 0.652 0.468 1.24 0.885 1.966 0.82 0.419-0.040 0.856-0.434 1.076-1.615 0.523-2.793 1.55-8.841 1.787-11.334 0.015-0.207 0.006-0.416-0.027-0.62-0.020-0.171-0.103-0.32-0.225-0.426l-0.001-0.001c-0.187-0.154-0.478-0.187-0.61-0.184-0.594 0.011-1.502 0.328-5.882 2.149z"></path>
</symbol>
<symbol id="facebook" viewBox="0 0 32 32">
<path  opacity="0.8" d="M18.78 28.96c6.285-1.285 11.013-6.847 11.013-13.512 0-7.617-6.176-13.793-13.793-13.793s-13.793 6.176-13.793 13.793c0 6.599 4.633 12.115 10.823 13.472v-9.967h-3.099v-4.1h3.099v-3.504c0-2.752 1.831-5.28 6.048-5.28 1.707 0 2.971 0.159 2.971 0.159l-0.1 3.829s-1.288-0.012-2.693-0.012c-1.52 0-1.764 0.681-1.764 1.813v2.993h4.579l-0.2 4.101h-4.379v10.208c0.436-0.047 0.867-0.113 1.289-0.2z"></path>
</symbol>

<symbol id="gift" viewBox="0 0 32 32">
<path fill="none" opacity="0.9" stroke="#fff" style="stroke: var(--color1, #fff)" stroke-linejoin="round" stroke-linecap="round" stroke-miterlimit="4" stroke-width="1.3333" d="M26.24 16v10.133c0 1.473-1.194 2.667-2.667 2.667v0h-15.147c-1.473 0-2.667-1.194-2.667-2.667v0-10.133M16 28.8v-19.2M16 9.6h-5.76c-1.767 0-3.2-1.433-3.2-3.2s1.433-3.2 3.2-3.2v0c4.48 0 5.76 6.4 5.76 6.4zM16 9.6h5.76c1.767 0 3.2-1.433 3.2-3.2s-1.433-3.2-3.2-3.2v0c-4.48 0-5.76 6.4-5.76 6.4zM5.867 16h20.267c1.473 0 2.667-1.194 2.667-2.667v0-1.067c0-1.473-1.194-2.667-2.667-2.667v0h-20.267c-1.473 0-2.667 1.194-2.667 2.667v0 1.067c0 1.473 1.194 2.667 2.667 2.667v0z"></path>
</symbol>
<symbol id="earth" viewBox="0 0 32 32">
<path fill="#fff" style="fill: var(--color1, #fff)" opacity="0.9" d="M16.791 2.701l0.047-0.665-0.905-0.063 0.209 0.881 0.649-0.153zM28.267 11.335l0.23 0.625 0.625-0.23-0.229-0.625-0.627 0.229zM16.839 2.899v0zM17.163 3.503v0zM17.407 3.763v0zM17.666 5.029l0.627 0.229-0.627-0.228zM17.621 5.154v0zM18.28 6.567v0zM18.999 7.722v0zM18.864 8.977v0zM19.217 10.032v0zM20.302 11.19v0zM21.536 11.586v0zM24.343 11.025v0zM24.803 11.014v-0.001zM27.542 11.425v0.001zM28.2 11.359v0zM8.533 26.845l-0.371 0.555 0.357 0.239 0.365-0.227-0.351-0.567zM9.535 4.285l0.455-0.488-0.353-0.328-0.422 0.231 0.32 0.585zM10.469 5.154l0.454-0.487-0.454 0.488zM10.736 5.499v0zM11.34 6.625l-0.587 0.315 0.020 0.038 0.025 0.035 0.542-0.388zM12.509 8.257v0zM12.836 10.803v0zM13.104 11.55v0zM12.552 13.133v0zM11.451 13.816v0zM11.245 13.973v0zM9.922 15.205v0zM8.382 16.638v0zM8.003 17.959v0zM8.405 19.455v0zM8.784 20.085l-0.455 0.488 0.454-0.488zM9.684 20.923h0.001zM10.031 21.45v0zM10.631 23.125v0zM10.977 24.090v0zM10.424 25.673l0.352 0.567-0.351-0.567zM15.555 17.349v0zM16.628 16.374v0zM15.377 19.124l-0.538 0.394 0.538-0.393zM16.019 20v0zM16.261 20.995v0zM15.966 22.875v0.001zM16.013 23.352l0.626-0.229-0.627 0.229zM17.254 23.912v0zM18.892 23.274v0zM19.521 22.766v0zM20.484 21.307v0zM20.627 21.127l-0.485-0.458 0.485 0.457zM21.996 19.674l0.485 0.458-0.485-0.457zM21.777 17.658v0zM21.387 17.393l0.376-0.551-0.015-0.010-0.015-0.009-0.345 0.57zM20.312 16.741h0.001zM19.917 16.581v0zM18.447 16.247l-0.193 0.638 0.023 0.007 0.023 0.005 0.147-0.65zM17.911 16.085v0zM16.745 3.367c5.024 0.347 9.235 3.657 10.896 8.197l1.253-0.458c-1.837-5.021-6.494-8.684-12.057-9.069l-0.092 1.33zM16.143 2.855l0.047 0.197 1.298-0.307-0.047-0.198-1.298 0.307zM16.189 3.053c0.086 0.354 0.256 0.66 0.488 0.908l-0.001-0.001 0.973-0.912c-0.077-0.082-0.134-0.184-0.161-0.297l-0.001-0.005-1.297 0.307zM16.676 3.959l0.244 0.26 0.973-0.911-0.244-0.26-0.973 0.911zM16.92 4.219c0.147 0.157 0.193 0.382 0.119 0.583l1.253 0.456c0.073-0.193 0.114-0.417 0.114-0.65 0-0.504-0.196-0.962-0.515-1.302l0.001 0.001-0.973 0.911zM17.039 4.803l-0.045 0.124 1.253 0.456 0.045-0.124-1.253-0.456zM16.994 4.927c-0.067 0.18-0.107 0.388-0.107 0.605 0 0.76 0.479 1.409 1.152 1.659l0.012 0.004 0.456-1.253c-0.169-0.063-0.287-0.223-0.287-0.41 0-0.053 0.010-0.104 0.027-0.152l-0.001 0.003-1.253-0.456zM18.052 7.195c0.189 0.069 0.306 0.257 0.285 0.457l1.325 0.143c0.006-0.057 0.010-0.122 0.010-0.189 0-0.76-0.479-1.408-1.152-1.659l-0.012-0.004-0.456 1.253zM18.337 7.651l-0.135 1.255 1.326 0.143 0.135-1.255-1.325-0.143zM18.201 8.907c-0.007 0.064-0.012 0.139-0.012 0.214 0 0.529 0.206 1.010 0.541 1.368l-0.001-0.001 0.973-0.911c-0.111-0.119-0.18-0.279-0.18-0.455 0-0.025 0.001-0.050 0.004-0.074l-0 0.003-1.326-0.143zM18.73 10.488l1.085 1.159 0.973-0.911-1.085-1.159-0.973 0.911zM19.815 11.647c0.366 0.39 0.884 0.632 1.459 0.632 0.139 0 0.274-0.014 0.405-0.041l-0.013 0.002-0.261-1.307c-0.039 0.008-0.084 0.013-0.131 0.013-0.192 0-0.365-0.081-0.486-0.211l-0-0-0.973 0.911zM21.667 12.24l2.807-0.56-0.261-1.308-2.807 0.561 0.261 1.307zM24.473 11.68c0.076-0.015 0.153-0.017 0.23-0.007l0.198-1.318c-0.089-0.014-0.192-0.022-0.297-0.022-0.139 0-0.274 0.014-0.405 0.041l0.013-0.002 0.261 1.307zM24.703 11.673l2.74 0.412 0.198-1.319-2.74-0.411-0.198 1.319zM27.443 12.085c0.089 0.014 0.192 0.022 0.297 0.022 0.248 0 0.485-0.045 0.704-0.127l-0.014 0.005-0.46-1.251c-0.068 0.026-0.147 0.041-0.23 0.041-0.035 0-0.069-0.003-0.103-0.008l0.004 0-0.199 1.319zM28.43 11.985l0.067-0.025-0.46-1.251-0.067 0.025 0.46 1.251zM8.905 26.293c-3.36-2.249-5.571-6.079-5.571-10.423h-1.333c0 4.808 2.448 9.044 6.162 11.531l0.742-1.108zM3.333 15.87c0-4.743 2.633-8.871 6.521-11l-0.641-1.169c-4.297 2.353-7.213 6.919-7.213 12.169h1.333zM10.923 4.667l-0.934-0.869-0.909 0.976 0.935 0.869 0.909-0.976zM11.323 5.184c-0.109-0.2-0.242-0.37-0.398-0.516l-0.001-0.001-0.909 0.976c0.053 0.049 0.097 0.106 0.132 0.169l0.002 0.003 1.175-0.631zM11.927 6.31l-0.605-1.126-1.175 0.631 0.605 1.125 1.175-0.631zM13.051 7.869l-1.169-1.632-1.084 0.777 1.169 1.632 1.084-0.777zM13.425 9.033c0-0 0-0.001 0-0.001 0-0.437-0.14-0.841-0.377-1.169l0.004 0.006-1.085 0.777c0.078 0.108 0.125 0.242 0.125 0.388v0h1.333zM13.425 10.353v-1.32h-1.333v1.32h1.333zM13.464 10.579c-0.025-0.067-0.039-0.145-0.039-0.225v0h-1.333c0 0.242 0.043 0.474 0.122 0.689l-0.004-0.014 1.255-0.449zM13.731 11.326l-0.267-0.747-1.255 0.449 0.268 0.747 1.255-0.449zM12.903 13.699c0.571-0.359 0.945-0.985 0.945-1.699 0-0.242-0.043-0.474-0.121-0.688l0.004 0.014-1.255 0.449c0.025 0.067 0.039 0.144 0.039 0.225 0 0.238-0.125 0.447-0.312 0.565l-0.003 0.002 0.703 1.133zM11.802 14.383l1.101-0.683-0.703-1.133-1.101 0.683 0.703 1.133zM11.699 14.461c0.030-0.028 0.064-0.054 0.1-0.076l0.003-0.002-0.703-1.133c-0.116 0.073-0.217 0.15-0.309 0.237l0.001-0.001 0.909 0.975zM10.376 15.693l1.323-1.232-0.909-0.975-1.323 1.231 0.909 0.976zM8.836 17.127l1.54-1.433-0.909-0.976-1.54 1.433 0.909 0.976zM8.647 17.787c-0.014-0.052-0.023-0.111-0.023-0.173 0-0.192 0.081-0.366 0.212-0.487l0-0-0.908-0.976c-0.393 0.366-0.638 0.887-0.638 1.464 0 0.184 0.025 0.363 0.072 0.532l-0.003-0.014 1.288-0.346zM9.048 19.283l-0.401-1.495-1.288 0.346 0.402 1.495 1.287-0.346zM9.238 19.598c-0.089-0.083-0.156-0.19-0.189-0.311l-0.001-0.005-1.287 0.346c0.103 0.375 0.301 0.696 0.568 0.944l0.001 0.001 0.909-0.976zM10.138 20.436l-0.9-0.838-0.909 0.976 0.901 0.838 0.909-0.976zM10.659 21.226c-0.113-0.312-0.291-0.577-0.519-0.789l-0.001-0.001-0.909 0.976c0.078 0.073 0.137 0.163 0.173 0.263l1.255-0.449zM11.259 22.901l-0.6-1.675-1.255 0.449 0.6 1.675 1.255-0.449zM11.604 23.866l-0.345-0.965-1.255 0.449 0.346 0.965 1.255-0.449zM10.776 26.239c0.571-0.359 0.945-0.985 0.945-1.699 0-0.242-0.043-0.474-0.121-0.688l0.004 0.014-1.255 0.449c0.025 0.067 0.039 0.144 0.039 0.225 0 0.238-0.125 0.447-0.313 0.565l-0.003 0.002 0.703 1.133zM8.885 27.413l1.891-1.173-0.703-1.133-1.891 1.173 0.703 1.133zM16.004 17.843l1.072-0.975-0.897-0.987-1.072 0.975 0.897 0.987zM15.915 18.73c-0.080-0.109-0.129-0.246-0.129-0.394 0-0.195 0.084-0.371 0.217-0.493l0.001-0-0.897-0.987c-0.403 0.367-0.655 0.894-0.655 1.48 0 0.445 0.145 0.856 0.391 1.188l-0.004-0.005 1.075-0.789zM16.557 19.606l-0.642-0.875-1.075 0.789 0.643 0.875 1.075-0.789zM16.92 21.099c0.015-0.093 0.024-0.201 0.024-0.311 0-0.445-0.145-0.856-0.391-1.188l0.004 0.005-1.075 0.789c0.081 0.109 0.129 0.246 0.129 0.394 0 0.037-0.003 0.073-0.009 0.108l0.001-0.004 1.317 0.207zM16.625 22.979l0.295-1.88-1.317-0.207-0.295 1.88 1.317 0.207zM16.638 23.123c-0.011-0.029-0.017-0.062-0.017-0.097 0-0.016 0.001-0.032 0.004-0.048l-0 0.002-1.317-0.207c-0.012 0.076-0.020 0.163-0.020 0.251 0 0.2 0.036 0.392 0.103 0.569l-0.004-0.011 1.252-0.459zM17.011 23.292c-0.031 0.012-0.067 0.020-0.104 0.020-0.123 0-0.228-0.077-0.269-0.186l-0.001-0.002-1.251 0.459c0.234 0.625 0.826 1.063 1.521 1.063 0.212 0 0.414-0.041 0.599-0.114l-0.011 0.004-0.484-1.242zM18.651 22.653l-1.639 0.639 0.484 1.242 1.638-0.638-0.484-1.243zM18.965 22.4c-0.076 0.114-0.184 0.202-0.31 0.252l-0.005 0.002 0.484 1.243c0.393-0.156 0.715-0.42 0.939-0.755l0.005-0.007-1.113-0.735zM19.927 20.94l-0.963 1.46 1.113 0.733 0.963-1.458-1.113-0.735zM20.141 20.67c-0.076 0.081-0.146 0.169-0.209 0.263l-0.005 0.007 1.113 0.735c0.022-0.034 0.046-0.064 0.072-0.091l-0 0-0.971-0.915zM21.511 19.218l-1.369 1.452 0.971 0.915 1.369-1.452-0.971-0.915zM21.401 18.21c0.177 0.122 0.291 0.323 0.291 0.551 0 0.177-0.069 0.338-0.182 0.458l0-0 0.971 0.915c0.337-0.357 0.545-0.84 0.545-1.372 0-0.684-0.343-1.288-0.867-1.648l-0.007-0.004-0.751 1.102zM21.012 17.944l0.389 0.266 0.751-1.102-0.389-0.265-0.751 1.101zM19.967 17.312l1.075 0.651 0.691-1.14-1.075-0.652-0.691 1.14zM19.769 17.232c0.069 0.016 0.136 0.043 0.197 0.080l0.691-1.14c-0.171-0.105-0.369-0.188-0.58-0.237l-0.014-0.003-0.296 1.3zM18.3 16.898l1.469 0.333 0.295-1.3-1.469-0.333-0.295 1.3zM17.718 16.723l0.536 0.163 0.387-1.276-0.536-0.163-0.387 1.276zM17.076 16.868c0.118-0.108 0.276-0.173 0.448-0.173 0.069 0 0.136 0.011 0.198 0.030l-0.005-0.001 0.387-1.276c-0.174-0.055-0.373-0.086-0.58-0.086-0.519 0-0.991 0.197-1.347 0.521l0.002-0.001 0.897 0.987z"></path>
<path fill="none" opacity="0.9" stroke="#fff" style="stroke: var(--color1, #fff)" stroke-linejoin="miter" stroke-linecap="butt" stroke-miterlimit="4" stroke-width="1.3333" d="M29.067 15.87c0 7.29-5.91 13.2-13.2 13.2s-13.2-5.91-13.2-13.2c0-7.29 5.91-13.2 13.2-13.2s13.2 5.91 13.2 13.2z"></path>
</symbol>
<symbol id="tv" viewBox="0 0 32 32">
<path fill="none" opacity="0.9" stroke="#fff" style="stroke: var(--color1, #fff)" stroke-linejoin="round" stroke-linecap="round" stroke-miterlimit="4" stroke-width="1.3333" d="M22.667 2.67l-6.667 6.667-6.667-6.667M5.334 9.337h21.333c1.473 0 2.667 1.194 2.667 2.667v0 14.667c0 1.473-1.194 2.667-2.667 2.667v0h-21.333c-1.473 0-2.667-1.194-2.667-2.667v0-14.667c0-1.473 1.194-2.667 2.667-2.667v0zM9.723 14.687h12.962M9.723 19.447h12.962M9.723 24.205h12.962"></path>
</symbol>
<symbol id="devices" viewBox="0 0 32 32">
<path fill="none" opacity="0.9" stroke="#fff" style="stroke: var(--color1, #fff)" stroke-linejoin="miter" stroke-linecap="butt" stroke-miterlimit="4" stroke-width="1.3333" d="M14.443 22.269h-10.179c-1.472 0-2.666-1.194-2.666-2.666 0-0 0-0 0-0.001v0-12.267c0-1.473 1.19-2.667 2.663-2.667h21.871c1.473 0 2.665 1.194 2.665 2.667v4"></path>
<path fill="#fff" style="fill: var(--color1, #fff)" opacity="0.9" d="M9.215 25.81c-0.246 0.102-0.417 0.34-0.417 0.618 0 0.368 0.298 0.667 0.667 0.667 0.101 0 0.197-0.023 0.284-0.063l-0.004 0.002-0.529-1.223zM14.375 24.472c-1.076 0-2.386 0.351-3.377 0.674-0.767 0.25-1.354 0.474-1.929 0.719l0.157-0.060-0.007 0.003c-0.001 0-0.001 0-0.002 0.001l-0 0h-0.001l0.265 0.613c0.265 0.611 0.264 0.612 0.264 0.612l0.001-0.001 0.005-0.002 0.023-0.010 0.093-0.039c0.081-0.033 0.2-0.082 0.35-0.14 0.3-0.117 0.719-0.273 1.195-0.429 0.975-0.318 2.113-0.609 2.963-0.609v-1.333z"></path>
<path fill="none" opacity="0.9" stroke="#fff" style="stroke: var(--color1, #fff)" stroke-linejoin="miter" stroke-linecap="butt" stroke-miterlimit="4" stroke-width="1.3333" d="M24.444 26.67h-8.047c-1.105 0-2-0.895-2-2v0-14c0-1.105 0.895-2 2-2v0h10.4c1.105 0 2 0.895 2 2v0 2.222"></path>
<path fill="none" opacity="0.9" stroke="#fff" style="stroke: var(--color1, #fff)" stroke-linejoin="miter" stroke-linecap="round" stroke-miterlimit="4" stroke-width="1.3333" d="M20.498 23.384h1.4"></path>
<path fill="none" opacity="0.9" stroke="#fff" style="stroke: var(--color1, #fff)" stroke-linejoin="miter" stroke-linecap="butt" stroke-miterlimit="4" stroke-width="1.3333" d="M23.875 14.902c0-1.105 0.895-2 2-2v0h2.969c1.105 0 2 0.895 2 2v0 9.933c0 1.105-0.895 2-2 2v0h-2.969c-1.105 0-2-0.895-2-2v0-9.933z"></path>
<path fill="none" opacity="0.9" stroke="#fff" style="stroke: var(--color1, #fff)" stroke-linejoin="miter" stroke-linecap="round" stroke-miterlimit="4" stroke-width="1.3333" d="M26.86 24.303h0.996"></path>
</symbol>
</defs>
</svg>
